<?xml version="1.0" standalone="no"?><!DOCTYPE svg PUBLIC "-//W3C//DTD SVG 1.1//EN" "http://www.w3.org/Graphics/SVG/1.1/DTD/svg11.dtd"><svg font-family="&quot;Source Sans Pro&quot;, &quot;Helvetica Neue&quot;, Helvetica" viewBox="0 0 1520 250" version="1.1" xmlns="http://www.w3.org/2000/svg" xmlns:xlink="http://www.w3.org/1999/xlink"><g id="sd-region-group-1_29903"><svg id="sd-position-group-B.1.351" y="0"><text x="40" y="44" fill="#000000" text-anchor="end" font-size="21" font-weight="bolder"/><g><line x1="60" x2="62.57130930847364" y1="39" y2="39" stroke-width="2" stroke="#333"/></g><g><rect x="62.58104911646028" y="24" width="207.35077222763323" height="30" rx="5" ry="5" stroke="#ffffff" stroke-opacity="0.8" stroke-width="2" fill="#d8d8d8"/><text x="70.58104911646028" y="39" font-size="16" dominant-baseline="central" fill="#505050">ORF1ab</text></g><g><rect x="270" y="24" width="980" height="30" rx="5" ry="5" stroke="#ffffff" stroke-opacity="0.8" stroke-width="2" fill="#b2df8a"/><text x="760" y="12" font-size="16" dominant-baseline="central" text-anchor="middle" fill="#33a02c">Spike</text></g><g><rect x="282.512077294686" y="36" width="296.9082125603865" height="30" rx="5" ry="5" stroke="#ffffff" stroke-opacity="0.8" stroke-width="2" fill="#a6cee3"/><text x="290.512077294686" y="51" font-size="16" dominant-baseline="central" fill="#1f78b4">NTD</text></g><g><rect x="579.7584541062802" y="36" width="231.98067632850245" height="30" rx="5" ry="5" stroke="#ffffff" stroke-opacity="0.8" stroke-width="2" fill="#fb9a99"/><text x="587.7584541062802" y="51" font-size="16" dominant-baseline="central" fill="#e31a1c">RBD</text></g><g><rect x="712.6570048309178" y="48" width="72.70531400966195" height="30" rx="5" ry="5" stroke="#ffffff" stroke-opacity="0.8" stroke-width="2" fill="#cab2d6"/><text x="720.6570048309178" y="63" font-size="16" dominant-baseline="central" fill="#6a3d9a">RBM</text></g><g><rect x="812.0772946859904" y="36" width="55.797101449275374" height="30" rx="5" ry="5" stroke="#ffffff" stroke-opacity="0.8" stroke-width="2" fill="#d8d8d8"/><text x="820.0772946859904" y="51" font-size="16" dominant-baseline="central" fill="#505050">SD1</text></g><g><rect x="868.2125603864733" y="36" width="91.64251207729478" height="30" rx="5" ry="5" stroke="#ffffff" stroke-opacity="0.8" stroke-width="2" fill="#d8d8d8"/><text x="876.2125603864733" y="51" font-size="16" dominant-baseline="central" fill="#505050">SD2</text></g><g><rect x="960.1932367149758" y="36" width="9.806763285024203" height="30" rx="5" ry="5" stroke="#ffffff" stroke-opacity="0.8" stroke-width="2" fill="#fdbf6f"/><text x="965.0966183574878" y="24" font-size="16" dominant-baseline="central" text-anchor="middle" fill="#ff7f00">S1/S2</text></g><g><rect x="1250.5109489051094" y="24" width="38.41406768414072" height="30" rx="5" ry="5" stroke="#ffffff" stroke-opacity="0.8" stroke-width="2" fill="#d8d8d8"/></g><g><rect x="1290.0862641008625" y="24" width="10.544127405441486" height="30" rx="5" ry="5" stroke="#ffffff" stroke-opacity="0.8" stroke-width="2" fill="#d8d8d8"/></g><g><rect x="1302.9993364299935" y="24" width="31.028533510285342" height="30" rx="5" ry="5" stroke="#ffffff" stroke-opacity="0.8" stroke-width="2" fill="#d8d8d8"/></g><g><rect x="1334.538818845388" y="24" width="8.593231585932699" height="30" rx="5" ry="5" stroke="#ffffff" stroke-opacity="0.8" stroke-width="2" fill="#d8d8d8"/></g><g><rect x="1343.457199734572" y="24" width="16.95421366954224" height="30" rx="5" ry="5" stroke="#ffffff" stroke-opacity="0.8" stroke-width="2" fill="#d8d8d8"/></g><g><rect x="1360.2720637027205" y="24" width="6.084936960849518" height="30" rx="5" ry="5" stroke="#ffffff" stroke-opacity="0.8" stroke-width="2" fill="#d8d8d8"/></g><g><rect x="1366.6821499668215" y="24" width="16.95421366954224" height="30" rx="5" ry="5" stroke="#ffffff" stroke-opacity="0.8" stroke-width="2" fill="#d8d8d8"/></g><g><rect x="1384.3331121433312" y="24" width="58.48042468480435" height="30" rx="5" ry="5" stroke="#ffffff" stroke-opacity="0.8" stroke-width="2" fill="#d8d8d8"/><text x="1392.3331121433312" y="39" font-size="16" dominant-baseline="central" fill="#505050">N</text></g><g><rect x="1443.9747843397477" y="24" width="5.388188453882094" height="30" rx="5" ry="5" stroke="#ffffff" stroke-opacity="0.8" stroke-width="2" fill="#d8d8d8"/></g><g><line x1="1449.4094226940942" x2="1460" y1="39" y2="39" stroke-width="2" stroke="#333"/></g><g><path d="m 66.29497704188118 21 l 4 4 l 4 -4 m -4 4 v 90" stroke="#e0e0e0" fill="none" stroke-width="1"/><text transform="translate(70.29497704188118, 119) rotate(-60)" fill="#a0a0a0" dominant-baseline="central" text-anchor="end" font-family="Arial Narrow">nsp2:T85I</text></g><g><path d="m 106.9099763461806 21 l 4 4 l 4 -4 m -4 4 v 55 c 0 5 0 5 -5 5 h -14 c -5 0 -5 0 -5 5 v 25" stroke="#e0e0e0" fill="none" stroke-width="1"/><text transform="translate(86.9099763461806, 119) rotate(-60)" fill="#a0a0a0" dominant-baseline="central" text-anchor="end" font-family="Arial Narrow">PLpro:K837N</text></g><g><path d="m 156.52455823013776 21 l 4 4 l 4 -4 m -4 4 v 65 c 0 5 0 5 -5 5 h -28.591345484903286 c -5 0 -5 0 -5 5 v 15" stroke="#e0e0e0" fill="none" stroke-width="1"/><text transform="translate(121.93321274523447, 119) rotate(-60)" fill="#a0a0a0" dominant-baseline="central" text-anchor="end" font-family="Arial Narrow">3CL:K90R</text></g><g><path d="m 165.93321274523447 21 l 4 4 l 4 -4 m -4 4 v 75 c 0 5 0 5 -5 5 h -14 c -5 0 -5 0 -5 5 v 5" stroke="#e0e0e0" fill="none" stroke-width="1"/><text transform="translate(145.93321274523447, 119) rotate(-60)" fill="#a0a0a0" dominant-baseline="central" text-anchor="end" font-family="Arial Narrow">nsp6:S106K</text></g><g><path d="m 165.9624321691944 21 l 4 4 l 4 -4 m -4 4 v 90" stroke="#e0e0e0" fill="none" stroke-width="1"/><text transform="translate(169.9624321691944, 119) rotate(-60)" fill="#a0a0a0" dominant-baseline="central" text-anchor="end" font-family="Arial Narrow">nsp6:Δ107-109</text></g><g><path d="m 196.31167385557256 21 l 4 4 l 4 -4 m -4 4 v 90" stroke="#e0e0e0" fill="none" stroke-width="1"/><text transform="translate(200.31167385557256, 119) rotate(-60)" fill="#a0a0a0" dominant-baseline="central" text-anchor="end" font-family="Arial Narrow">RdRP:P323L</text></g><g><path d="m 346.1449275362319 21 l 4 4 l 4 -4 m -4 4 v 90" stroke="#000000" fill="none" stroke-width="1"/><text transform="translate(350.1449275362319, 119) rotate(-60)" fill="#000000" dominant-baseline="central" text-anchor="end" font-family="Arial Narrow">D80A</text></g><g><path d="m 483.1014492753623 21 l 4 4 l 4 -4 m -4 4 v 90" stroke="#000000" fill="none" stroke-width="1"/><text transform="translate(487.1014492753623, 119) rotate(-60)" fill="#000000" dominant-baseline="central" text-anchor="end" font-family="Arial Narrow">D215G</text></g><g><path d="m 509.47826086956525 21 l 4 4 l 4 -4 m -4 4 v 90" stroke="#000000" fill="none" stroke-width="1"/><text transform="translate(513.4782608695652, 119) rotate(-60)" fill="#000000" dominant-baseline="central" text-anchor="end" font-family="Arial Narrow">Δ241-243</text></g><g><path d="m 688.0289855072465 21 l 4 4 l 4 -4 m -4 4 v 90" stroke="#000000" fill="none" stroke-width="1"/><text transform="translate(692.0289855072465, 119) rotate(-60)" fill="#000000" dominant-baseline="central" text-anchor="end" font-family="Arial Narrow">K417N</text></g><g><path d="m 756 21 l 4 4 l 4 -4 m -4 4 v 90" stroke="#000000" fill="none" stroke-width="1"/><text transform="translate(760, 119) rotate(-60)" fill="#000000" dominant-baseline="central" text-anchor="end" font-family="Arial Narrow">E484K</text></g><g><path d="m 773.2463768115941 21 l 4 4 l 4 -4 m -4 4 v 90" stroke="#000000" fill="none" stroke-width="1"/><text transform="translate(777.2463768115941, 119) rotate(-60)" fill="#000000" dominant-baseline="central" text-anchor="end" font-family="Arial Narrow">N501Y</text></g><g><path d="m 887.8840579710146 21 l 4 4 l 4 -4 m -4 4 v 90" stroke="#000000" fill="none" stroke-width="1"/><text transform="translate(891.8840579710146, 119) rotate(-60)" fill="#000000" dominant-baseline="central" text-anchor="end" font-family="Arial Narrow">D614G</text></g><g><path d="m 970.64 21 l 4 4 l 4 -4 m -4 4 v 90" stroke="#000000" fill="none" stroke-width="1"/><text transform="translate(974.64, 119) rotate(-60)" fill="#000000" dominant-baseline="central" text-anchor="end" font-family="Arial Narrow">A701V</text></g><g><path d="m 1254.3145321831453 21 l 4 4 l 4 -4 m -4 4 v 90" stroke="#e0e0e0" fill="none" stroke-width="1"/><text transform="translate(1258.3145321831453, 119) rotate(-60)" fill="#a0a0a0" dominant-baseline="central" text-anchor="end" font-family="Arial Narrow">ORF3a:Q57H</text></g><g><path d="m 1270.2003981420041 21 l 4 4 l 4 -4 m -4 4 v 90" stroke="#e0e0e0" fill="none" stroke-width="1"/><text transform="translate(1274.2003981420041, 119) rotate(-60)" fill="#a0a0a0" dominant-baseline="central" text-anchor="end" font-family="Arial Narrow">ORF3a:S171L</text></g><g><path d="m 1295.8407431984074 21 l 4 4 l 4 -4 m -4 4 v 90" stroke="#e0e0e0" fill="none" stroke-width="1"/><text transform="translate(1299.8407431984074, 119) rotate(-60)" fill="#a0a0a0" dominant-baseline="central" text-anchor="end" font-family="Arial Narrow">E:P71L</text></g><g><path d="m 1408.7604512276043 21 l 4 4 l 4 -4 m -4 4 v 90" stroke="#e0e0e0" fill="none" stroke-width="1"/><text transform="translate(1412.7604512276043, 119) rotate(-60)" fill="#a0a0a0" dominant-baseline="central" text-anchor="end" font-family="Arial Narrow">N:T205I</text></g></svg></g></svg>