<?xml version="1.0" standalone="no"?><!DOCTYPE svg PUBLIC "-//W3C//DTD SVG 1.1//EN" "http://www.w3.org/Graphics/SVG/1.1/DTD/svg11.dtd"><svg font-family="&quot;Source Sans Pro&quot;, &quot;Helvetica Neue&quot;, Helvetica" viewBox="0 0 1520 250" version="1.1" xmlns="http://www.w3.org/2000/svg" xmlns:xlink="http://www.w3.org/1999/xlink"><g id="sd-region-group-1_29903"><svg id="sd-position-group-B.1.617.2" y="0"><text x="40" y="44" fill="#000000" text-anchor="end" font-size="21" font-weight="bolder"/><g><line x1="60" x2="62.57130930847364" y1="39" y2="39" stroke-width="2" stroke="#333"/></g><g><rect x="62.58104911646028" y="24" width="207.35077222763323" height="30" rx="5" ry="5" stroke="#ffffff" stroke-opacity="0.8" stroke-width="2" fill="#d8d8d8"/><text x="70.58104911646028" y="39" font-size="16" dominant-baseline="central" fill="#505050">ORF1ab</text></g><g><rect x="270" y="24" width="980" height="30" rx="5" ry="5" stroke="#ffffff" stroke-opacity="0.8" stroke-width="2" fill="#b2df8a"/><text x="760" y="12" font-size="16" dominant-baseline="central" text-anchor="middle" fill="#33a02c">Spike</text></g><g><rect x="282.512077294686" y="36" width="296.9082125603865" height="30" rx="5" ry="5" stroke="#ffffff" stroke-opacity="0.8" stroke-width="2" fill="#a6cee3"/><text x="290.512077294686" y="51" font-size="16" dominant-baseline="central" fill="#1f78b4">NTD</text></g><g><rect x="579.7584541062802" y="36" width="231.98067632850245" height="30" rx="5" ry="5" stroke="#ffffff" stroke-opacity="0.8" stroke-width="2" fill="#fb9a99"/><text x="587.7584541062802" y="51" font-size="16" dominant-baseline="central" fill="#e31a1c">RBD</text></g><g><rect x="712.6570048309178" y="48" width="72.70531400966195" height="30" rx="5" ry="5" stroke="#ffffff" stroke-opacity="0.8" stroke-width="2" fill="#cab2d6"/><text x="720.6570048309178" y="63" font-size="16" dominant-baseline="central" fill="#6a3d9a">RBM</text></g><g><rect x="812.0772946859904" y="36" width="55.797101449275374" height="30" rx="5" ry="5" stroke="#ffffff" stroke-opacity="0.8" stroke-width="2" fill="#d8d8d8"/><text x="820.0772946859904" y="51" font-size="16" dominant-baseline="central" fill="#505050">SD1</text></g><g><rect x="868.2125603864733" y="36" width="91.64251207729478" height="30" rx="5" ry="5" stroke="#ffffff" stroke-opacity="0.8" stroke-width="2" fill="#d8d8d8"/><text x="876.2125603864733" y="51" font-size="16" dominant-baseline="central" fill="#505050">SD2</text></g><g><rect x="960.1932367149758" y="36" width="9.806763285024203" height="30" rx="5" ry="5" stroke="#ffffff" stroke-opacity="0.8" stroke-width="2" fill="#fdbf6f"/><text x="965.0966183574878" y="24" font-size="16" dominant-baseline="central" text-anchor="middle" fill="#ff7f00">S1/S2</text></g><g><rect x="1250.5109489051094" y="24" width="38.41406768414072" height="30" rx="5" ry="5" stroke="#ffffff" stroke-opacity="0.8" stroke-width="2" fill="#d8d8d8"/></g><g><rect x="1290.0862641008625" y="24" width="10.544127405441486" height="30" rx="5" ry="5" stroke="#ffffff" stroke-opacity="0.8" stroke-width="2" fill="#d8d8d8"/></g><g><rect x="1302.9993364299935" y="24" width="31.028533510285342" height="30" rx="5" ry="5" stroke="#ffffff" stroke-opacity="0.8" stroke-width="2" fill="#d8d8d8"/></g><g><rect x="1334.538818845388" y="24" width="8.593231585932699" height="30" rx="5" ry="5" stroke="#ffffff" stroke-opacity="0.8" stroke-width="2" fill="#d8d8d8"/></g><g><rect x="1343.457199734572" y="24" width="16.95421366954224" height="30" rx="5" ry="5" stroke="#ffffff" stroke-opacity="0.8" stroke-width="2" fill="#d8d8d8"/></g><g><rect x="1360.2720637027205" y="24" width="6.084936960849518" height="30" rx="5" ry="5" stroke="#ffffff" stroke-opacity="0.8" stroke-width="2" fill="#d8d8d8"/></g><g><rect x="1366.6821499668215" y="24" width="16.95421366954224" height="30" rx="5" ry="5" stroke="#ffffff" stroke-opacity="0.8" stroke-width="2" fill="#d8d8d8"/></g><g><rect x="1384.3331121433312" y="24" width="58.48042468480435" height="30" rx="5" ry="5" stroke="#ffffff" stroke-opacity="0.8" stroke-width="2" fill="#d8d8d8"/><text x="1392.3331121433312" y="39" font-size="16" dominant-baseline="central" fill="#505050">N</text></g><g><rect x="1443.9747843397477" y="24" width="5.388188453882094" height="30" rx="5" ry="5" stroke="#ffffff" stroke-opacity="0.8" stroke-width="2" fill="#d8d8d8"/></g><g><line x1="1449.4094226940942" x2="1460" y1="39" y2="39" stroke-width="2" stroke="#333"/></g><g><path d="m 144.16474189508835 21 l 4 4 l 4 -4 m -4 4 v 55 c 0 5 0 5 -5 5 h -14 c -5 0 -5 0 -5 5 v 55" stroke="#e0e0e0" fill="none" stroke-width="1"/><text transform="translate(124.16474189508835, 149) rotate(-60)" fill="#a0a0a0" dominant-baseline="central" text-anchor="end" font-family="Arial Narrow">nsp4:V167L</text></g><g><path d="m 196.31167385557256 21 l 4 4 l 4 -4 m -4 4 v 65 c 0 5 0 5 -5 5 h -27.83164046194517 c -5 0 -5 0 -5 5 v 45" stroke="#e0e0e0" fill="none" stroke-width="1"/><text transform="translate(162.4800333936274, 149) rotate(-60)" fill="#a0a0a0" dominant-baseline="central" text-anchor="end" font-family="Arial Narrow">RdRP:P323L</text></g><g><path d="m 206.4800333936274 21 l 4 4 l 4 -4 m -4 4 v 75 c 0 5 0 5 -5 5 h -14 c -5 0 -5 0 -5 5 v 35" stroke="#e0e0e0" fill="none" stroke-width="1"/><text transform="translate(186.4800333936274, 149) rotate(-60)" fill="#a0a0a0" dominant-baseline="central" text-anchor="end" font-family="Arial Narrow">RdRP:G671S</text></g><g><path d="m 216.35619869208293 21 l 4 4 l 4 -4 m -4 4 v 120" stroke="#e0e0e0" fill="none" stroke-width="1"/><text transform="translate(220.35619869208293, 149) rotate(-60)" fill="#a0a0a0" dominant-baseline="central" text-anchor="end" font-family="Arial Narrow">nsp13:P77L</text></g><g><path d="m 284.2608695652174 21 l 4 4 l 4 -4 m -4 4 v 120" stroke="#000000" fill="none" stroke-width="1"/><text transform="translate(288.2608695652174, 149) rotate(-60)" fill="#000000" dominant-baseline="central" text-anchor="end" font-family="Arial Narrow">T19R</text></g><g><path d="m 409.04347826086956 21 l 4 4 l 4 -4 m -4 4 v 55 c 0 5 0 5 -5 5 h -23.797101449275317 c -5 0 -5 0 -5 5 v 55" stroke="#000000" fill="none" stroke-width="1"/><text transform="translate(379.24637681159425, 149) rotate(-60)" fill="#000000" dominant-baseline="central" text-anchor="end" font-family="Arial Narrow">G142D</text></g><g><path d="m 423.24637681159425 21 l 4 4 l 4 -4 m -4 4 v 65 c 0 5 0 5 -5 5 h -14 c -5 0 -5 0 -5 5 v 45" stroke="#000000" fill="none" stroke-width="1"/><text transform="translate(403.24637681159425, 149) rotate(-60)" fill="#000000" dominant-baseline="central" text-anchor="end" font-family="Arial Narrow">E156G</text></g><g><path d="m 424.2608695652174 21 l 4 4 l 4 -4 m -4 4 v 120" stroke="#000000" fill="none" stroke-width="1"/><text transform="translate(428.2608695652174, 149) rotate(-60)" fill="#000000" dominant-baseline="central" text-anchor="end" font-family="Arial Narrow">Δ157-158</text></g><g><path d="m 723.536231884058 21 l 4 4 l 4 -4 m -4 4 v 120" stroke="#000000" fill="none" stroke-width="1"/><text transform="translate(727.536231884058, 149) rotate(-60)" fill="#000000" dominant-baseline="central" text-anchor="end" font-family="Arial Narrow">L452R</text></g><g><path d="m 749.9130434782609 21 l 4 4 l 4 -4 m -4 4 v 120" stroke="#000000" fill="none" stroke-width="1"/><text transform="translate(753.9130434782609, 149) rotate(-60)" fill="#000000" dominant-baseline="central" text-anchor="end" font-family="Arial Narrow">T478K</text></g><g><path d="m 887.8840579710146 21 l 4 4 l 4 -4 m -4 4 v 120" stroke="#000000" fill="none" stroke-width="1"/><text transform="translate(891.8840579710146, 149) rotate(-60)" fill="#000000" dominant-baseline="central" text-anchor="end" font-family="Arial Narrow">D614G</text></g><g><path d="m 955.8550724637681 21 l 4 4 l 4 -4 m -4 4 v 120" stroke="#000000" fill="none" stroke-width="1"/><text transform="translate(959.8550724637681, 149) rotate(-60)" fill="#000000" dominant-baseline="central" text-anchor="end" font-family="Arial Narrow">P681R</text></g><g><path d="m 1090.1599999999999 21 l 4 4 l 4 -4 m -4 4 v 120" stroke="#000000" fill="none" stroke-width="1"/><text transform="translate(1094.1599999999999, 149) rotate(-60)" fill="#000000" dominant-baseline="central" text-anchor="end" font-family="Arial Narrow">D950N</text></g><g><path d="m 1249.9946914399468 21 l 4 4 l 4 -4 m -4 4 v 120" stroke="#e0e0e0" fill="none" stroke-width="1"/><text transform="translate(1253.9946914399468, 149) rotate(-60)" fill="#a0a0a0" dominant-baseline="central" text-anchor="end" font-family="Arial Narrow">ORF3a:S26L</text></g><g><path d="m 1310.2866622428667 21 l 4 4 l 4 -4 m -4 4 v 120" stroke="#e0e0e0" fill="none" stroke-width="1"/><text transform="translate(1314.2866622428667, 149) rotate(-60)" fill="#a0a0a0" dominant-baseline="central" text-anchor="end" font-family="Arial Narrow">M:I82T</text></g><g><path d="m 1350.7445255474454 21 l 4 4 l 4 -4 m -4 4 v 120" stroke="#e0e0e0" fill="none" stroke-width="1"/><text transform="translate(1354.7445255474454, 149) rotate(-60)" fill="#a0a0a0" dominant-baseline="central" text-anchor="end" font-family="Arial Narrow">ORF7a:V82A</text></g><g><path d="m 1356.0398142003983 21 l 4 4 l 4 -4 m -4 4 v 105 c 0 5 0 5 5 5 h 14 c 5 0 5 0 5 5 v 5" stroke="#e0e0e0" fill="none" stroke-width="1"/><text transform="translate(1384.0398142003983, 149) rotate(-60)" fill="#a0a0a0" dominant-baseline="central" text-anchor="end" font-family="Arial Narrow">ORF7a:T120I</text></g><g><path d="m 1379.125414731254 21 l 4 4 l 4 -4 m -4 4 v 95 c 0 5 0 5 5 5 h 14.9143994691442 c 5 0 5 0 5 5 v 15" stroke="#e0e0e0" fill="none" stroke-width="1"/><text transform="translate(1408.0398142003983, 149) rotate(-60)" fill="#a0a0a0" dominant-baseline="central" text-anchor="end" font-family="Arial Narrow">ORF8:D119I</text></g><g><path d="m 1379.2647644326476 21 l 4 4 l 4 -4 m -4 4 v 85 c 0 5 0 5 5 5 h 38.775049767750716 c 5 0 5 0 5 5 v 25" stroke="#e0e0e0" fill="none" stroke-width="1"/><text transform="translate(1432.0398142003983, 149) rotate(-60)" fill="#a0a0a0" dominant-baseline="central" text-anchor="end" font-family="Arial Narrow">ORF8:Δ120-121</text></g><g><path d="m 1388.972793629728 21 l 4 4 l 4 -4 m -4 4 v 75 c 0 5 0 5 5 5 h 53.067020570670365 c 5 0 5 0 5 5 v 35" stroke="#e0e0e0" fill="none" stroke-width="1"/><text transform="translate(1456.0398142003983, 149) rotate(-60)" fill="#a0a0a0" dominant-baseline="central" text-anchor="end" font-family="Arial Narrow">N:D63G</text></g><g><path d="m 1408.4817518248176 21 l 4 4 l 4 -4 m -4 4 v 65 c 0 5 0 5 5 5 h 57.558062375580676 c 5 0 5 0 5 5 v 45" stroke="#e0e0e0" fill="none" stroke-width="1"/><text transform="translate(1480.0398142003983, 149) rotate(-60)" fill="#a0a0a0" dominant-baseline="central" text-anchor="end" font-family="Arial Narrow">N:R203M</text></g><g><path d="m 1432.728599867286 21 l 4 4 l 4 -4 m -4 4 v 55 c 0 5 0 5 5 5 h 57.311214333112275 c 5 0 5 0 5 5 v 55" stroke="#e0e0e0" fill="none" stroke-width="1"/><text transform="translate(1504.0398142003983, 149) rotate(-60)" fill="#a0a0a0" dominant-baseline="central" text-anchor="end" font-family="Arial Narrow">N:D377Y</text></g></svg></g></svg>