<?xml version="1.0" standalone="no"?><!DOCTYPE svg PUBLIC "-//W3C//DTD SVG 1.1//EN" "http://www.w3.org/Graphics/SVG/1.1/DTD/svg11.dtd"><svg font-family="&quot;Source Sans Pro&quot;, &quot;Helvetica Neue&quot;, Helvetica" viewBox="0 0 1760 260" version="1.1" xmlns="http://www.w3.org/2000/svg" xmlns:xlink="http://www.w3.org/1999/xlink"><g id="sd-region-group-1_29903"><svg id="sd-position-group-P.1" y="0"><text x="100" y="44" fill="#000000" text-anchor="end" font-size="21" font-weight="bolder"/><g><line x1="120" x2="122.79170724919994" y1="39" y2="39" stroke-width="2" stroke="#333"/></g><g><rect x="122.80228189787115" y="24" width="225.12369556143037" height="30" rx="5" ry="5" stroke="#ffffff" stroke-opacity="0.8" stroke-width="2" fill="#d8d8d8"/><text x="130.80228189787115" y="39" font-size="16" dominant-baseline="central" fill="#505050">ORF1ab</text></g><g><rect x="348" y="24" width="1064" height="30" rx="5" ry="5" stroke="#ffffff" stroke-opacity="0.8" stroke-width="2" fill="#b2df8a"/><text x="880" y="12" font-size="16" dominant-baseline="central" text-anchor="middle" fill="#33a02c">Spike</text></g><g><rect x="361.5845410628019" y="36" width="322.35748792270533" height="30" rx="5" ry="5" stroke="#ffffff" stroke-opacity="0.8" stroke-width="2" fill="#a6cee3"/><text x="369.5845410628019" y="51" font-size="16" dominant-baseline="central" fill="#1f78b4">NTD</text></g><g><rect x="684.3091787439614" y="36" width="251.86473429951673" height="30" rx="5" ry="5" stroke="#ffffff" stroke-opacity="0.8" stroke-width="2" fill="#fb9a99"/><text x="692.3091787439614" y="51" font-size="16" dominant-baseline="central" fill="#e31a1c">RBD</text></g><g><rect x="828.5990338164252" y="48" width="78.93719806763283" height="30" rx="5" ry="5" stroke="#ffffff" stroke-opacity="0.8" stroke-width="2" fill="#cab2d6"/><text x="836.5990338164252" y="63" font-size="16" dominant-baseline="central" fill="#6a3d9a">RBM</text></g><g><rect x="936.5410628019324" y="36" width="60.5797101449275" height="30" rx="5" ry="5" stroke="#ffffff" stroke-opacity="0.8" stroke-width="2" fill="#d8d8d8"/><text x="944.5410628019324" y="51" font-size="16" dominant-baseline="central" fill="#505050">SD1</text></g><g><rect x="997.487922705314" y="36" width="99.49758454106279" height="30" rx="5" ry="5" stroke="#ffffff" stroke-opacity="0.8" stroke-width="2" fill="#d8d8d8"/><text x="1005.487922705314" y="51" font-size="16" dominant-baseline="central" fill="#505050">SD2</text></g><g><rect x="1097.352657004831" y="36" width="10.647342995169083" height="30" rx="5" ry="5" stroke="#ffffff" stroke-opacity="0.8" stroke-width="2" fill="#fdbf6f"/><text x="1102.6763285024153" y="24" font-size="16" dominant-baseline="central" text-anchor="middle" fill="#ff7f00">S1/S2</text></g><g><rect x="1412.5547445255474" y="24" width="41.706702057067105" height="30" rx="5" ry="5" stroke="#ffffff" stroke-opacity="0.8" stroke-width="2" fill="#d8d8d8"/></g><g><rect x="1455.5222295952221" y="24" width="11.44790975447927" height="30" rx="5" ry="5" stroke="#ffffff" stroke-opacity="0.8" stroke-width="2" fill="#d8d8d8"/></g><g><rect x="1469.5421366954213" y="24" width="33.68812209688144" height="30" rx="5" ry="5" stroke="#ffffff" stroke-opacity="0.8" stroke-width="2" fill="#d8d8d8"/></g><g><rect x="1503.78500331785" y="24" width="9.329794293298164" height="30" rx="5" ry="5" stroke="#ffffff" stroke-opacity="0.8" stroke-width="2" fill="#d8d8d8"/></g><g><rect x="1513.4678168546784" y="24" width="18.407431984074037" height="30" rx="5" ry="5" stroke="#ffffff" stroke-opacity="0.8" stroke-width="2" fill="#d8d8d8"/></g><g><rect x="1531.7239548772395" y="24" width="6.606502986065152" height="30" rx="5" ry="5" stroke="#ffffff" stroke-opacity="0.8" stroke-width="2" fill="#d8d8d8"/></g><g><rect x="1538.6834771068347" y="24" width="18.407431984074265" height="30" rx="5" ry="5" stroke="#ffffff" stroke-opacity="0.8" stroke-width="2" fill="#d8d8d8"/></g><g><rect x="1557.8473788984738" y="24" width="63.49303251493029" height="30" rx="5" ry="5" stroke="#ffffff" stroke-opacity="0.8" stroke-width="2" fill="#d8d8d8"/><text x="1565.8473788984738" y="39" font-size="16" dominant-baseline="central" fill="#505050">N</text></g><g><rect x="1622.601194426012" y="24" width="5.8500331785003254" height="30" rx="5" ry="5" stroke="#ffffff" stroke-opacity="0.8" stroke-width="2" fill="#d8d8d8"/></g><g><line x1="1628.5016589250167" x2="1640" y1="39" y2="39" stroke-width="2" stroke="#333"/></g><g><path d="m 156.45860581605677 21 l 4 4 l 4 -4 m -4 4 v 80" stroke="#e0e0e0" fill="none" stroke-width="1"/><text transform="translate(160.45860581605677, 109) rotate(-60)" fill="#a0a0a0" dominant-baseline="central" text-anchor="end" font-family="Arial Narrow">PLpro:S370L</text></g><g><path d="m 175.71504104633365 21 l 4 4 l 4 -4 m -4 4 v 80" stroke="#e0e0e0" fill="none" stroke-width="1"/><text transform="translate(179.71504104633365, 109) rotate(-60)" fill="#a0a0a0" dominant-baseline="central" text-anchor="end" font-family="Arial Narrow">PLpro:K977Q</text></g><g><path d="m 235.35605955196885 21 l 4 4 l 4 -4 m -4 4 v 55 c 0 5 0 5 -5 5 h -14 c -5 0 -5 0 -5 5 v 15" stroke="#e0e0e0" fill="none" stroke-width="1"/><text transform="translate(215.35605955196885, 109) rotate(-60)" fill="#a0a0a0" dominant-baseline="central" text-anchor="end" font-family="Arial Narrow">nsp6:S106K</text></g><g><path d="m 235.38778349798247 21 l 4 4 l 4 -4 m -4 4 v 80" stroke="#e0e0e0" fill="none" stroke-width="1"/><text transform="translate(239.38778349798247, 109) rotate(-60)" fill="#a0a0a0" dominant-baseline="central" text-anchor="end" font-family="Arial Narrow">nsp6:Δ107-109</text></g><g><path d="m 268.33838875747875 21 l 4 4 l 4 -4 m -4 4 v 80" stroke="#e0e0e0" fill="none" stroke-width="1"/><text transform="translate(272.33838875747875, 109) rotate(-60)" fill="#a0a0a0" dominant-baseline="central" text-anchor="end" font-family="Arial Narrow">RdRP:P323L</text></g><g><path d="m 298.4761374704327 21 l 4 4 l 4 -4 m -4 4 v 80" stroke="#e0e0e0" fill="none" stroke-width="1"/><text transform="translate(302.4761374704327, 109) rotate(-60)" fill="#a0a0a0" dominant-baseline="central" text-anchor="end" font-family="Arial Narrow">nsp13:E341D</text></g><g><path d="m 362.7246376811594 21 l 4 4 l 4 -4 m -4 4 v 55 c 0 5 0 5 -5 5 h -35.797101449275374 c -5 0 -5 0 -5 5 v 15" stroke="#000000" fill="none" stroke-width="1"/><text transform="translate(320.927536231884, 109) rotate(-60)" fill="#000000" dominant-baseline="central" text-anchor="end" font-family="Arial Narrow">L18F</text></g><g><path d="m 364.927536231884 21 l 4 4 l 4 -4 m -4 4 v 65 c 0 5 0 5 -5 5 h -14 c -5 0 -5 0 -5 5 v 5" stroke="#000000" fill="none" stroke-width="1"/><text transform="translate(344.927536231884, 109) rotate(-60)" fill="#000000" dominant-baseline="central" text-anchor="end" font-family="Arial Narrow">T20N</text></g><g><path d="m 371.53623188405794 21 l 4 4 l 4 -4 m -4 4 v 80" stroke="#000000" fill="none" stroke-width="1"/><text transform="translate(375.53623188405794, 109) rotate(-60)" fill="#000000" dominant-baseline="central" text-anchor="end" font-family="Arial Narrow">P26S</text></g><g><path d="m 494.8985507246377 21 l 4 4 l 4 -4 m -4 4 v 80" stroke="#000000" fill="none" stroke-width="1"/><text transform="translate(498.8985507246377, 109) rotate(-60)" fill="#000000" dominant-baseline="central" text-anchor="end" font-family="Arial Narrow">D138Y</text></g><g><path d="m 552.1739130434783 21 l 4 4 l 4 -4 m -4 4 v 80" stroke="#000000" fill="none" stroke-width="1"/><text transform="translate(556.1739130434783, 109) rotate(-60)" fill="#000000" dominant-baseline="central" text-anchor="end" font-family="Arial Narrow">R190S</text></g><g><path d="m 802.2028985507246 21 l 4 4 l 4 -4 m -4 4 v 80" stroke="#000000" fill="none" stroke-width="1"/><text transform="translate(806.2028985507246, 109) rotate(-60)" fill="#000000" dominant-baseline="central" text-anchor="end" font-family="Arial Narrow">K417T</text></g><g><path d="m 875.9999999999999 21 l 4 4 l 4 -4 m -4 4 v 80" stroke="#000000" fill="none" stroke-width="1"/><text transform="translate(879.9999999999999, 109) rotate(-60)" fill="#000000" dominant-baseline="central" text-anchor="end" font-family="Arial Narrow">E484K</text></g><g><path d="m 894.7246376811594 21 l 4 4 l 4 -4 m -4 4 v 80" stroke="#000000" fill="none" stroke-width="1"/><text transform="translate(898.7246376811594, 109) rotate(-60)" fill="#000000" dominant-baseline="central" text-anchor="end" font-family="Arial Narrow">N501Y</text></g><g><path d="m 1019.1884057971014 21 l 4 4 l 4 -4 m -4 4 v 80" stroke="#000000" fill="none" stroke-width="1"/><text transform="translate(1023.1884057971014, 109) rotate(-60)" fill="#000000" dominant-baseline="central" text-anchor="end" font-family="Arial Narrow">D614G</text></g><g><path d="m 1064.3478260869565 21 l 4 4 l 4 -4 m -4 4 v 80" stroke="#000000" fill="none" stroke-width="1"/><text transform="translate(1068.3478260869565, 109) rotate(-60)" fill="#000000" dominant-baseline="central" text-anchor="end" font-family="Arial Narrow">H655Y</text></g><g><path d="m 1278.9302857142857 21 l 4 4 l 4 -4 m -4 4 v 80" stroke="#000000" fill="none" stroke-width="1"/><text transform="translate(1282.9302857142857, 109) rotate(-60)" fill="#000000" dominant-baseline="central" text-anchor="end" font-family="Arial Narrow">T1027I</text></g><g><path d="m 1356.5805714285714 21 l 4 4 l 4 -4 m -4 4 v 80" stroke="#000000" fill="none" stroke-width="1"/><text transform="translate(1360.5805714285714, 109) rotate(-60)" fill="#000000" dominant-baseline="central" text-anchor="end" font-family="Arial Narrow">V1176F</text></g><g><path d="m 1446.6808228268083 21 l 4 4 l 4 -4 m -4 4 v 80" stroke="#e0e0e0" fill="none" stroke-width="1"/><text transform="translate(1450.6808228268083, 109) rotate(-60)" fill="#a0a0a0" dominant-baseline="central" text-anchor="end" font-family="Arial Narrow">ORF3a:S253P</text></g><g><path d="m 1548.4512276045123 21 l 4 4 l 4 -4 m -4 4 v 80" stroke="#e0e0e0" fill="none" stroke-width="1"/><text transform="translate(1552.4512276045123, 109) rotate(-60)" fill="#a0a0a0" dominant-baseline="central" text-anchor="end" font-family="Arial Narrow">ORF8:E92K</text></g><g><path d="m 1565.799601857996 21 l 4 4 l 4 -4 m -4 4 v 80" stroke="#e0e0e0" fill="none" stroke-width="1"/><text transform="translate(1569.799601857996, 109) rotate(-60)" fill="#a0a0a0" dominant-baseline="central" text-anchor="end" font-family="Arial Narrow">N:P80R</text></g><g><path d="m 1584.4087591240877 21 l 4 4 l 4 -4 m -4 4 v 80" stroke="#e0e0e0" fill="none" stroke-width="1"/><text transform="translate(1588.4087591240877, 109) rotate(-60)" fill="#a0a0a0" dominant-baseline="central" text-anchor="end" font-family="Arial Narrow">N:R203K</text></g><g><path d="m 1584.5600530856004 21 l 4 4 l 4 -4 m -4 4 v 55 c 0 5 0 5 5 5 h 14 c 5 0 5 0 5 5 v 15" stroke="#e0e0e0" fill="none" stroke-width="1"/><text transform="translate(1612.5600530856004, 109) rotate(-60)" fill="#a0a0a0" dominant-baseline="central" text-anchor="end" font-family="Arial Narrow">N:G204R</text></g></svg></g></svg>