<?xml version="1.0" standalone="no"?><!DOCTYPE svg PUBLIC "-//W3C//DTD SVG 1.1//EN" "http://www.w3.org/Graphics/SVG/1.1/DTD/svg11.dtd"><svg font-family="&quot;Source Sans Pro&quot;, &quot;Helvetica Neue&quot;, Helvetica" viewBox="0 0 1782.0667872547656 310" version="1.1" xmlns="http://www.w3.org/2000/svg" xmlns:xlink="http://www.w3.org/1999/xlink"><g id="sd-region-group-1_29903"><svg id="sd-position-group-BA.1" y="0"><text x="122.06678725476553" y="44" fill="#000000" text-anchor="end" font-size="21" font-weight="bolder"/><g><line x1="142.06678725476553" x2="144.8584945039655" y1="39" y2="39" stroke-width="2" stroke="#333"/></g><g><rect x="144.86906915263668" y="24" width="225.12369556143037" height="30" rx="5" ry="5" stroke="#ffffff" stroke-opacity="0.8" stroke-width="2" fill="#d8d8d8"/><text x="152.86906915263668" y="39" font-size="16" dominant-baseline="central" fill="#505050">ORF1ab</text></g><g><rect x="370.06678725476553" y="24" width="1064" height="30" rx="5" ry="5" stroke="#ffffff" stroke-opacity="0.8" stroke-width="2" fill="#b2df8a"/><text x="902.0667872547656" y="12" font-size="16" dominant-baseline="central" text-anchor="middle" fill="#33a02c">Spike</text></g><g><rect x="383.65132831756745" y="36" width="322.3574879227054" height="30" rx="5" ry="5" stroke="#ffffff" stroke-opacity="0.8" stroke-width="2" fill="#a6cee3"/><text x="391.65132831756745" y="51" font-size="16" dominant-baseline="central" fill="#1f78b4">NTD</text></g><g><rect x="706.375965998727" y="36" width="251.86473429951684" height="30" rx="5" ry="5" stroke="#ffffff" stroke-opacity="0.8" stroke-width="2" fill="#fb9a99"/><text x="714.375965998727" y="51" font-size="16" dominant-baseline="central" fill="#e31a1c">RBD</text></g><g><rect x="850.6658210711906" y="48" width="78.93719806763283" height="30" rx="5" ry="5" stroke="#ffffff" stroke-opacity="0.8" stroke-width="2" fill="#cab2d6"/><text x="858.6658210711906" y="63" font-size="16" dominant-baseline="central" fill="#6a3d9a">RBM</text></g><g><rect x="958.6078500566979" y="36" width="60.57971014492762" height="30" rx="5" ry="5" stroke="#ffffff" stroke-opacity="0.8" stroke-width="2" fill="#d8d8d8"/><text x="966.6078500566979" y="51" font-size="16" dominant-baseline="central" fill="#505050">SD1</text></g><g><rect x="1019.5547099600795" y="36" width="99.49758454106279" height="30" rx="5" ry="5" stroke="#ffffff" stroke-opacity="0.8" stroke-width="2" fill="#d8d8d8"/><text x="1027.5547099600794" y="51" font-size="16" dominant-baseline="central" fill="#505050">SD2</text></g><g><rect x="1119.4194442595965" y="36" width="10.647342995169083" height="30" rx="5" ry="5" stroke="#ffffff" stroke-opacity="0.8" stroke-width="2" fill="#fdbf6f"/><text x="1124.743115757181" y="24" font-size="16" dominant-baseline="central" text-anchor="middle" fill="#ff7f00">S1/S2</text></g><g><rect x="1434.621531780313" y="24" width="41.706702057067105" height="30" rx="5" ry="5" stroke="#ffffff" stroke-opacity="0.8" stroke-width="2" fill="#d8d8d8"/></g><g><rect x="1477.5890168499877" y="24" width="11.44790975447927" height="30" rx="5" ry="5" stroke="#ffffff" stroke-opacity="0.8" stroke-width="2" fill="#d8d8d8"/></g><g><rect x="1491.608923950187" y="24" width="33.688122096881216" height="30" rx="5" ry="5" stroke="#ffffff" stroke-opacity="0.8" stroke-width="2" fill="#d8d8d8"/></g><g><rect x="1525.8517905726155" y="24" width="9.329794293298164" height="30" rx="5" ry="5" stroke="#ffffff" stroke-opacity="0.8" stroke-width="2" fill="#d8d8d8"/></g><g><rect x="1535.534604109444" y="24" width="18.407431984074037" height="30" rx="5" ry="5" stroke="#ffffff" stroke-opacity="0.8" stroke-width="2" fill="#d8d8d8"/></g><g><rect x="1553.790742132005" y="24" width="6.606502986065152" height="30" rx="5" ry="5" stroke="#ffffff" stroke-opacity="0.8" stroke-width="2" fill="#d8d8d8"/></g><g><rect x="1560.7502643616003" y="24" width="18.407431984074265" height="30" rx="5" ry="5" stroke="#ffffff" stroke-opacity="0.8" stroke-width="2" fill="#d8d8d8"/></g><g><rect x="1579.9141661532394" y="24" width="63.49303251493029" height="30" rx="5" ry="5" stroke="#ffffff" stroke-opacity="0.8" stroke-width="2" fill="#d8d8d8"/><text x="1587.9141661532394" y="39" font-size="16" dominant-baseline="central" fill="#505050">N</text></g><g><rect x="1644.6679816807775" y="24" width="5.8500331785003254" height="30" rx="5" ry="5" stroke="#ffffff" stroke-opacity="0.8" stroke-width="2" fill="#d8d8d8"/></g><g><line x1="1650.568446179782" x2="1662.0667872547656" y1="39" y2="39" stroke-width="2" stroke="#333"/></g><g><path d="m 167.99304299429522 21 l 4 4 l 4 -4 m -4 4 v 55 c 0 5 0 5 -5 5 h -92.57019618756087 c -5 0 -5 0 -5 5 v 125" stroke="#e0e0e0" fill="none" stroke-width="1"/><text transform="translate(69.42284680673436, 219) rotate(-60)" fill="#a0a0a0" dominant-baseline="central" text-anchor="end" font-family="Arial Narrow">PLpro:K38R</text></g><g><path d="m 206.9183247530263 21 l 4 4 l 4 -4 m -4 4 v 65 c 0 5 0 5 -5 5 h -107.49547794629194 c -5 0 -5 0 -5 5 v 115" stroke="#e0e0e0" fill="none" stroke-width="1"/><text transform="translate(93.42284680673436, 219) rotate(-60)" fill="#a0a0a0" dominant-baseline="central" text-anchor="end" font-family="Arial Narrow">PLpro:S1265I</text></g><g><path d="m 206.95004869903994 21 l 4 4 l 4 -4 m -4 4 v 75 c 0 5 0 5 -5 5 h -83.52720189230558 c -5 0 -5 0 -5 5 v 105" stroke="#e0e0e0" fill="none" stroke-width="1"/><text transform="translate(117.42284680673436, 219) rotate(-60)" fill="#a0a0a0" dominant-baseline="central" text-anchor="end" font-family="Arial Narrow">PLpro:Δ1266</text></g><g><path d="m 226.80923890357587 21 l 4 4 l 4 -4 m -4 4 v 85 c 0 5 0 5 -5 5 h -79.38639209684152 c -5 0 -5 0 -5 5 v 95" stroke="#e0e0e0" fill="none" stroke-width="1"/><text transform="translate(141.42284680673436, 219) rotate(-60)" fill="#a0a0a0" dominant-baseline="central" text-anchor="end" font-family="Arial Narrow">PLpro:A1892T</text></g><g><path d="m 244.09878948100737 21 l 4 4 l 4 -4 m -4 4 v 95 c 0 5 0 5 -5 5 h -72.67594267427302 c -5 0 -5 0 -5 5 v 85" stroke="#e0e0e0" fill="none" stroke-width="1"/><text transform="translate(165.42284680673436, 219) rotate(-60)" fill="#a0a0a0" dominant-baseline="central" text-anchor="end" font-family="Arial Narrow">nsp4:T492I</text></g><g><path d="m 248.54014192291638 21 l 4 4 l 4 -4 m -4 4 v 105 c 0 5 0 5 -5 5 h -53.11729511618202 c -5 0 -5 0 -5 5 v 75" stroke="#e0e0e0" fill="none" stroke-width="1"/><text transform="translate(189.42284680673436, 219) rotate(-60)" fill="#a0a0a0" dominant-baseline="central" text-anchor="end" font-family="Arial Narrow">3CL:P132H</text></g><g><path d="m 257.3911228607207 21 l 4 4 l 4 -4 m -4 4 v 115 c 0 5 0 5 -5 5 h -37.96827605398636 c -5 0 -5 0 -5 5 v 65" stroke="#e0e0e0" fill="none" stroke-width="1"/><text transform="translate(213.42284680673436, 219) rotate(-60)" fill="#a0a0a0" dominant-baseline="central" text-anchor="end" font-family="Arial Narrow">nsp6:L105F</text></g><g><path d="m 257.42284680673436 21 l 4 4 l 4 -4 m -4 4 v 125 c 0 5 0 5 -5 5 h -14 c -5 0 -5 0 -5 5 v 55" stroke="#e0e0e0" fill="none" stroke-width="1"/><text transform="translate(237.42284680673436, 219) rotate(-60)" fill="#a0a0a0" dominant-baseline="central" text-anchor="end" font-family="Arial Narrow">nsp6:Δ106-108</text></g><g><path d="m 260.05593432586613 21 l 4 4 l 4 -4 m -4 4 v 190" stroke="#e0e0e0" fill="none" stroke-width="1"/><text transform="translate(264.05593432586613, 219) rotate(-60)" fill="#a0a0a0" dominant-baseline="central" text-anchor="end" font-family="Arial Narrow">nsp6:I189V</text></g><g><path d="m 290.4157506609155 21 l 4 4 l 4 -4 m -4 4 v 190" stroke="#e0e0e0" fill="none" stroke-width="1"/><text transform="translate(294.4157506609155, 219) rotate(-60)" fill="#a0a0a0" dominant-baseline="central" text-anchor="end" font-family="Arial Narrow">RdRP:P323L</text></g><g><path d="m 330.13413106998746 21 l 4 4 l 4 -4 m -4 4 v 190" stroke="#e0e0e0" fill="none" stroke-width="1"/><text transform="translate(334.13413106998746, 219) rotate(-60)" fill="#a0a0a0" dominant-baseline="central" text-anchor="end" font-family="Arial Narrow">nsp14:I42V</text></g><g><path d="m 438.7624394286786 21 l 4 4 l 4 -4 m -4 4 v 55 c 0 5 0 5 -5 5 h -14 c -5 0 -5 0 -5 5 v 125" stroke="#000000" fill="none" stroke-width="1"/><text transform="translate(418.7624394286786, 219) rotate(-60)" fill="#000000" dominant-baseline="central" text-anchor="end" font-family="Arial Narrow">A67V</text></g><g><path d="m 440.9653379794033 21 l 4 4 l 4 -4 m -4 4 v 190" stroke="#000000" fill="none" stroke-width="1"/><text transform="translate(444.9653379794033, 219) rotate(-60)" fill="#000000" dominant-baseline="central" text-anchor="end" font-family="Arial Narrow">Δ69-70</text></g><g><path d="m 469.60301913882347 21 l 4 4 l 4 -4 m -4 4 v 190" stroke="#000000" fill="none" stroke-width="1"/><text transform="translate(473.60301913882347, 219) rotate(-60)" fill="#000000" dominant-baseline="central" text-anchor="end" font-family="Arial Narrow">T95I</text></g><g><path d="m 521.3711350808525 21 l 4 4 l 4 -4 m -4 4 v 55 c 0 5 0 5 -5 5 h -14 c -5 0 -5 0 -5 5 v 125" stroke="#000000" fill="none" stroke-width="1"/><text transform="translate(501.37113508085247, 219) rotate(-60)" fill="#000000" dominant-baseline="central" text-anchor="end" font-family="Arial Narrow">G142D</text></g><g><path d="m 522.4725843562148 21 l 4 4 l 4 -4 m -4 4 v 190" stroke="#000000" fill="none" stroke-width="1"/><text transform="translate(526.4725843562148, 219) rotate(-60)" fill="#000000" dominant-baseline="central" text-anchor="end" font-family="Arial Narrow">Δ143-145</text></g><g><path d="m 597.3711350808526 21 l 4 4 l 4 -4 m -4 4 v 55 c 0 5 0 5 -5 5 h -36.898550724637744 c -5 0 -5 0 -5 5 v 125" stroke="#000000" fill="none" stroke-width="1"/><text transform="translate(554.4725843562148, 219) rotate(-60)" fill="#000000" dominant-baseline="central" text-anchor="end" font-family="Arial Narrow">N211I</text></g><g><path d="m 598.4725843562148 21 l 4 4 l 4 -4 m -4 4 v 65 c 0 5 0 5 -5 5 h -14 c -5 0 -5 0 -5 5 v 115" stroke="#000000" fill="none" stroke-width="1"/><text transform="translate(578.4725843562148, 219) rotate(-60)" fill="#000000" dominant-baseline="central" text-anchor="end" font-family="Arial Narrow">Δ212</text></g><g><path d="m 601.7769321823018 21 l 4 4 l 4 -4 m -4 4 v 190" stroke="#000000" fill="none" stroke-width="1"/><text transform="translate(605.7769321823018, 219) rotate(-60)" fill="#000000" dominant-baseline="central" text-anchor="end" font-family="Arial Narrow">215EPEins</text></g><g><path d="m 738.3566423272293 21 l 4 4 l 4 -4 m -4 4 v 55 c 0 5 0 5 -5 5 h -52.898550724637744 c -5 0 -5 0 -5 5 v 125" stroke="#000000" fill="none" stroke-width="1"/><text transform="translate(679.4580916025916, 219) rotate(-60)" fill="#000000" dominant-baseline="central" text-anchor="end" font-family="Arial Narrow">G339D</text></g><g><path d="m 773.6030191388236 21 l 4 4 l 4 -4 m -4 4 v 65 c 0 5 0 5 -5 5 h -64.14492753623199 c -5 0 -5 0 -5 5 v 115" stroke="#000000" fill="none" stroke-width="1"/><text transform="translate(703.4580916025916, 219) rotate(-60)" fill="#000000" dominant-baseline="central" text-anchor="end" font-family="Arial Narrow">S371L</text></g><g><path d="m 775.8059176895482 21 l 4 4 l 4 -4 m -4 4 v 75 c 0 5 0 5 -5 5 h -42.347826086956616 c -5 0 -5 0 -5 5 v 105" stroke="#000000" fill="none" stroke-width="1"/><text transform="translate(727.4580916025916, 219) rotate(-60)" fill="#000000" dominant-baseline="central" text-anchor="end" font-family="Arial Narrow">S373P</text></g><g><path d="m 778.0088162402728 21 l 4 4 l 4 -4 m -4 4 v 85 c 0 5 0 5 -5 5 h -20.550724637681242 c -5 0 -5 0 -5 5 v 95" stroke="#000000" fill="none" stroke-width="1"/><text transform="translate(751.4580916025916, 219) rotate(-60)" fill="#000000" dominant-baseline="central" text-anchor="end" font-family="Arial Narrow">S375F</text></g><g><path d="m 824.2696858054903 21 l 4 4 l 4 -4 m -4 4 v 95 c 0 5 0 5 -5 5 h -42.81159420289873 c -5 0 -5 0 -5 5 v 85" stroke="#000000" fill="none" stroke-width="1"/><text transform="translate(775.4580916025916, 219) rotate(-60)" fill="#000000" dominant-baseline="central" text-anchor="end" font-family="Arial Narrow">K417N</text></g><g><path d="m 849.6030191388236 21 l 4 4 l 4 -4 m -4 4 v 105 c 0 5 0 5 -5 5 h -44.14492753623199 c -5 0 -5 0 -5 5 v 75" stroke="#000000" fill="none" stroke-width="1"/><text transform="translate(799.4580916025916, 219) rotate(-60)" fill="#000000" dominant-baseline="central" text-anchor="end" font-family="Arial Narrow">N440K</text></g><g><path d="m 856.2117147909973 21 l 4 4 l 4 -4 m -4 4 v 115 c 0 5 0 5 -5 5 h -26.753623188405754 c -5 0 -5 0 -5 5 v 65" stroke="#000000" fill="none" stroke-width="1"/><text transform="translate(823.4580916025916, 219) rotate(-60)" fill="#000000" dominant-baseline="central" text-anchor="end" font-family="Arial Narrow">G446S</text></g><g><path d="m 890.3566423272293 21 l 4 4 l 4 -4 m -4 4 v 125 c 0 5 0 5 -5 5 h -36.898550724637744 c -5 0 -5 0 -5 5 v 55" stroke="#000000" fill="none" stroke-width="1"/><text transform="translate(847.4580916025916, 219) rotate(-60)" fill="#000000" dominant-baseline="central" text-anchor="end" font-family="Arial Narrow">S477N</text></g><g><path d="m 891.4580916025916 21 l 4 4 l 4 -4 m -4 4 v 135 c 0 5 0 5 -5 5 h -14 c -5 0 -5 0 -5 5 v 45" stroke="#000000" fill="none" stroke-width="1"/><text transform="translate(871.4580916025916, 219) rotate(-60)" fill="#000000" dominant-baseline="central" text-anchor="end" font-family="Arial Narrow">T478K</text></g><g><path d="m 898.0667872547656 21 l 4 4 l 4 -4 m -4 4 v 190" stroke="#000000" fill="none" stroke-width="1"/><text transform="translate(902.0667872547656, 219) rotate(-60)" fill="#000000" dominant-baseline="central" text-anchor="end" font-family="Arial Narrow">E484A</text></g><g><path d="m 907.9798307330263 21 l 4 4 l 4 -4 m -4 4 v 175 c 0 5 0 5 5 5 h 14 c 5 0 5 0 5 5 v 5" stroke="#000000" fill="none" stroke-width="1"/><text transform="translate(935.9798307330263, 219) rotate(-60)" fill="#000000" dominant-baseline="central" text-anchor="end" font-family="Arial Narrow">Q493R</text></g><g><path d="m 911.2841785591135 21 l 4 4 l 4 -4 m -4 4 v 165 c 0 5 0 5 5 5 h 34.69565217391289 c 5 0 5 0 5 5 v 15" stroke="#000000" fill="none" stroke-width="1"/><text transform="translate(959.9798307330263, 219) rotate(-60)" fill="#000000" dominant-baseline="central" text-anchor="end" font-family="Arial Narrow">G496S</text></g><g><path d="m 913.4870771098381 21 l 4 4 l 4 -4 m -4 4 v 155 c 0 5 0 5 5 5 h 56.492753623188264 c 5 0 5 0 5 5 v 25" stroke="#000000" fill="none" stroke-width="1"/><text transform="translate(983.9798307330263, 219) rotate(-60)" fill="#000000" dominant-baseline="central" text-anchor="end" font-family="Arial Narrow">Q498R</text></g><g><path d="m 916.791424935925 21 l 4 4 l 4 -4 m -4 4 v 145 c 0 5 0 5 5 5 h 77.18840579710138 c 5 0 5 0 5 5 v 35" stroke="#000000" fill="none" stroke-width="1"/><text transform="translate(1007.9798307330263, 219) rotate(-60)" fill="#000000" dominant-baseline="central" text-anchor="end" font-family="Arial Narrow">N501Y</text></g><g><path d="m 921.1972220373742 21 l 4 4 l 4 -4 m -4 4 v 135 c 0 5 0 5 5 5 h 96.78260869565213 c 5 0 5 0 5 5 v 45" stroke="#000000" fill="none" stroke-width="1"/><text transform="translate(1031.9798307330263, 219) rotate(-60)" fill="#000000" dominant-baseline="central" text-anchor="end" font-family="Arial Narrow">Y505H</text></g><g><path d="m 967.4580916025917 21 l 4 4 l 4 -4 m -4 4 v 125 c 0 5 0 5 5 5 h 74.52173913043464 c 5 0 5 0 5 5 v 55" stroke="#000000" fill="none" stroke-width="1"/><text transform="translate(1055.9798307330263, 219) rotate(-60)" fill="#000000" dominant-baseline="central" text-anchor="end" font-family="Arial Narrow">T547K</text></g><g><path d="m 1041.255193051867 21 l 4 4 l 4 -4 m -4 4 v 115 c 0 5 0 5 5 5 h 24.724637681159265 c 5 0 5 0 5 5 v 65" stroke="#000000" fill="none" stroke-width="1"/><text transform="translate(1079.9798307330263, 219) rotate(-60)" fill="#000000" dominant-baseline="central" text-anchor="end" font-family="Arial Narrow">D614G</text></g><g><path d="m 1086.414613341722 21 l 4 4 l 4 -4 m -4 4 v 105 c 0 5 0 5 5 5 h 14 c 5 0 5 0 5 5 v 75" stroke="#000000" fill="none" stroke-width="1"/><text transform="translate(1114.414613341722, 219) rotate(-60)" fill="#000000" dominant-baseline="central" text-anchor="end" font-family="Arial Narrow">H655Y</text></g><g><path d="m 1112.8493959504178 21 l 4 4 l 4 -4 m -4 4 v 95 c 0 5 0 5 5 5 h 14 c 5 0 5 0 5 5 v 85" stroke="#000000" fill="none" stroke-width="1"/><text transform="translate(1140.8493959504178, 219) rotate(-60)" fill="#000000" dominant-baseline="central" text-anchor="end" font-family="Arial Narrow">N679K</text></g><g><path d="m 1115.0522945011423 21 l 4 4 l 4 -4 m -4 4 v 85 c 0 5 0 5 5 5 h 35.79710144927549 c 5 0 5 0 5 5 v 95" stroke="#000000" fill="none" stroke-width="1"/><text transform="translate(1164.8493959504178, 219) rotate(-60)" fill="#000000" dominant-baseline="central" text-anchor="end" font-family="Arial Narrow">P681H</text></g><g><path d="m 1163.9365015404799 21 l 4 4 l 4 -4 m -4 4 v 75 c 0 5 0 5 5 5 h 14 c 5 0 5 0 5 5 v 105" stroke="#000000" fill="none" stroke-width="1"/><text transform="translate(1191.9365015404799, 219) rotate(-60)" fill="#000000" dominant-baseline="central" text-anchor="end" font-family="Arial Narrow">N764K</text></g><g><path d="m 1180.6130729690512 21 l 4 4 l 4 -4 m -4 4 v 65 c 0 5 0 5 5 5 h 21.32342857142862 c 5 0 5 0 5 5 v 115" stroke="#000000" fill="none" stroke-width="1"/><text transform="translate(1215.9365015404799, 219) rotate(-60)" fill="#000000" dominant-baseline="central" text-anchor="end" font-family="Arial Narrow">D796Y</text></g><g><path d="m 1211.8816443976227 21 l 4 4 l 4 -4 m -4 4 v 55 c 0 5 0 5 5 5 h 14.054857142857145 c 5 0 5 0 5 5 v 125" stroke="#000000" fill="none" stroke-width="1"/><text transform="translate(1239.9365015404799, 219) rotate(-60)" fill="#000000" dominant-baseline="central" text-anchor="end" font-family="Arial Narrow">N856K</text></g><g><path d="m 1262.9536443976226 21 l 4 4 l 4 -4 m -4 4 v 190" stroke="#000000" fill="none" stroke-width="1"/><text transform="translate(1266.9536443976226, 219) rotate(-60)" fill="#000000" dominant-baseline="central" text-anchor="end" font-family="Arial Narrow">Q954H</text></g><g><path d="m 1270.7707872547655 21 l 4 4 l 4 -4 m -4 4 v 65 c 0 5 0 5 5 5 h 14 c 5 0 5 0 5 5 v 115" stroke="#000000" fill="none" stroke-width="1"/><text transform="translate(1298.7707872547655, 219) rotate(-60)" fill="#000000" dominant-baseline="central" text-anchor="end" font-family="Arial Narrow">N969K</text></g><g><path d="m 1277.0245015404798 21 l 4 4 l 4 -4 m -4 4 v 55 c 0 5 0 5 5 5 h 31.746285714285705 c 5 0 5 0 5 5 v 125" stroke="#000000" fill="none" stroke-width="1"/><text transform="translate(1322.7707872547655, 219) rotate(-60)" fill="#000000" dominant-baseline="central" text-anchor="end" font-family="Arial Narrow">L981F</text></g><g><path d="m 1474.7993685420915 21 l 4 4 l 4 -4 m -4 4 v 190" stroke="#e0e0e0" fill="none" stroke-width="1"/><text transform="translate(1478.7993685420915, 219) rotate(-60)" fill="#a0a0a0" dominant-baseline="central" text-anchor="end" font-family="Arial Narrow">E:T9I</text></g><g><path d="m 1487.911511873213 21 l 4 4 l 4 -4 m -4 4 v 190" stroke="#e0e0e0" fill="none" stroke-width="1"/><text transform="translate(1491.911511873213, 219) rotate(-60)" fill="#a0a0a0" dominant-baseline="central" text-anchor="end" font-family="Arial Narrow">M:D3G</text></g><g><path d="m 1490.3322152574199 21 l 4 4 l 4 -4 m -4 4 v 65 c 0 5 0 5 5 5 h 14 c 5 0 5 0 5 5 v 115" stroke="#e0e0e0" fill="none" stroke-width="1"/><text transform="translate(1518.3322152574199, 219) rotate(-60)" fill="#a0a0a0" dominant-baseline="central" text-anchor="end" font-family="Arial Narrow">M:Q19E</text></g><g><path d="m 1496.989149563989 21 l 4 4 l 4 -4 m -4 4 v 55 c 0 5 0 5 5 5 h 31.343065693430844 c 5 0 5 0 5 5 v 125" stroke="#e0e0e0" fill="none" stroke-width="1"/><text transform="translate(1542.3322152574199, 219) rotate(-60)" fill="#a0a0a0" dominant-baseline="central" text-anchor="end" font-family="Arial Narrow">M:A63T</text></g><g><path d="m 1577.7296936913945 21 l 4 4 l 4 -4 m -4 4 v 190" stroke="#e0e0e0" fill="none" stroke-width="1"/><text transform="translate(1581.7296936913945, 219) rotate(-60)" fill="#a0a0a0" dominant-baseline="central" text-anchor="end" font-family="Arial Narrow">N:P13L</text></g><g><path d="m 1580.4529849986277 21 l 4 4 l 4 -4 m -4 4 v 75 c 0 5 0 5 5 5 h 14 c 5 0 5 0 5 5 v 105" stroke="#e0e0e0" fill="none" stroke-width="1"/><text transform="translate(1608.4529849986277, 219) rotate(-60)" fill="#a0a0a0" dominant-baseline="central" text-anchor="end" font-family="Arial Narrow">N:Δ31-33</text></g><g><path d="m 1606.4755463788533 21 l 4 4 l 4 -4 m -4 4 v 65 c 0 5 0 5 5 5 h 14 c 5 0 5 0 5 5 v 115" stroke="#e0e0e0" fill="none" stroke-width="1"/><text transform="translate(1634.4755463788533, 219) rotate(-60)" fill="#a0a0a0" dominant-baseline="central" text-anchor="end" font-family="Arial Narrow">N:R203K</text></g><g><path d="m 1606.626840340366 21 l 4 4 l 4 -4 m -4 4 v 55 c 0 5 0 5 5 5 h 37.84870603848731 c 5 0 5 0 5 5 v 125" stroke="#e0e0e0" fill="none" stroke-width="1"/><text transform="translate(1658.4755463788533, 219) rotate(-60)" fill="#a0a0a0" dominant-baseline="central" text-anchor="end" font-family="Arial Narrow">N:G204R</text></g></svg></g></svg>